<svg width="1147" height="150" viewBox="0 0 1147 150" fill="none" xmlns="http://www.w3.org/2000/svg">
<g clip-path="url(#clip0_496_2)">
<rect width="1147" height="150" fill="url(#paint0_linear_496_2)"/>
<path d="M335.165 157.675L414.38 255.166L294.071 276.379L335.165 157.675Z" fill="#E1DDEE" fill-opacity="0.07"/>
<path d="M294.822 275.739L335.344 158.688L413.456 254.821L294.822 275.739Z" stroke="#E3DCEE" stroke-opacity="0.35"/>
<path d="M355.131 140.932L434.346 238.422L314.037 259.636L355.131 140.932Z" fill="#E1DDEE" fill-opacity="0.07"/>
<path d="M314.788 258.996L355.31 141.945L433.421 238.078L314.788 258.996Z" stroke="#E3DCEE" stroke-opacity="0.35"/>
<path d="M374.914 123.149L454.128 220.639L333.82 241.853L374.914 123.149Z" fill="#E1DDEE" fill-opacity="0.07"/>
<path d="M334.571 241.213L375.092 124.161L453.204 220.295L334.571 241.213Z" stroke="#E3DCEE" stroke-opacity="0.35"/>
<path d="M394.61 104.875L473.825 202.366L353.516 223.579L394.61 104.875Z" fill="#E1DDEE" fill-opacity="0.07"/>
<path d="M354.267 222.939L394.789 105.888L472.9 202.021L354.267 222.939Z" stroke="#E3DCEE" stroke-opacity="0.35"/>
<path d="M414.321 86.6878L493.536 184.178L373.228 205.392L414.321 86.6878Z" fill="#E1DDEE" fill-opacity="0.07"/>
<path d="M373.978 204.752L414.5 87.7005L492.612 183.834L373.978 204.752Z" stroke="#E3DCEE" stroke-opacity="0.35"/>
<path d="M434.148 69.1527L513.362 166.643L393.054 187.857L434.148 69.1527Z" fill="#E1DDEE" fill-opacity="0.07"/>
<path d="M393.805 187.217L434.326 70.1653L512.438 166.298L393.805 187.217Z" stroke="#E3DCEE" stroke-opacity="0.35"/>
<path d="M454.185 52.8119L533.399 150.302L413.091 171.516L454.185 52.8119Z" fill="#E1DDEE" fill-opacity="0.07"/>
<path d="M413.842 170.876L454.363 53.8245L532.475 149.958L413.842 170.876Z" stroke="#E3DCEE" stroke-opacity="0.35"/>
<path d="M474.52 38.1634L553.735 135.654L433.426 156.868L474.52 38.1634Z" fill="#E1DDEE" fill-opacity="0.07"/>
<path d="M434.177 156.227L474.699 39.1761L552.811 135.309L434.177 156.227Z" stroke="#E3DCEE" stroke-opacity="0.35"/>
<path d="M495.229 25.6332L574.444 123.124L454.135 144.337L495.229 25.6332Z" fill="#E1DDEE" fill-opacity="0.07"/>
<path d="M454.886 143.697L495.408 26.6458L573.52 122.779L454.886 143.697Z" stroke="#E3DCEE" stroke-opacity="0.35"/>
<path d="M516.372 15.5628L595.586 113.053L475.278 134.267L516.372 15.5628Z" fill="#E1DDEE" fill-opacity="0.07"/>
<path d="M476.029 133.627L516.55 16.5755L594.662 112.709L476.029 133.627Z" stroke="#E3DCEE" stroke-opacity="0.35"/>
<path d="M537.992 8.20152L617.207 105.692L496.899 126.906L537.992 8.20152Z" fill="#E1DDEE" fill-opacity="0.07"/>
<path d="M497.649 126.266L538.171 9.21415L616.283 105.347L497.649 126.266Z" stroke="#E3DCEE" stroke-opacity="0.35"/>
<path d="M560.114 3.68492L639.329 101.175L519.02 122.389L560.114 3.68492Z" fill="#E1DDEE" fill-opacity="0.07"/>
<path d="M519.771 121.749L560.293 4.69755L638.404 100.831L519.771 121.749Z" stroke="#E3DCEE" stroke-opacity="0.35"/>
<path d="M582.741 2.03453L661.956 99.525L541.648 120.739L582.741 2.03453Z" fill="#E1DDEE" fill-opacity="0.07"/>
<path d="M542.398 120.099L582.92 3.04716L661.032 99.1803L542.398 120.099Z" stroke="#E3DCEE" stroke-opacity="0.35"/>
<path d="M605.859 3.16246L685.073 100.653L564.765 121.867L605.859 3.16246Z" fill="#E1DDEE" fill-opacity="0.07"/>
<path d="M565.516 121.226L606.037 4.17509L684.149 100.308L565.516 121.226Z" stroke="#E3DCEE" stroke-opacity="0.35"/>
<path d="M629.43 6.86754L708.645 104.358L588.337 125.572L629.43 6.86754Z" fill="#E1DDEE" fill-opacity="0.07"/>
<path d="M589.087 124.932L629.609 7.88017L707.721 104.013L589.087 124.932Z" stroke="#E3DCEE" stroke-opacity="0.35"/>
<path d="M653.403 12.8441L732.617 110.335L612.309 131.548L653.403 12.8441Z" fill="#E1DDEE" fill-opacity="0.07"/>
<path d="M613.059 130.908L653.581 13.8567L731.693 109.99L613.059 130.908Z" stroke="#E3DCEE" stroke-opacity="0.35"/>
<path d="M677.706 20.6996L756.92 118.19L636.612 139.404L677.706 20.6996Z" fill="#E1DDEE" fill-opacity="0.07"/>
<path d="M637.363 138.764L677.884 21.7122L755.996 117.845L637.363 138.764Z" stroke="#E3DCEE" stroke-opacity="0.35"/>
<path d="M702.258 29.9623L781.472 127.453L661.164 148.666L702.258 29.9623Z" fill="#E1DDEE" fill-opacity="0.07"/>
<path d="M661.914 148.026L702.436 30.9749L780.548 127.108L661.914 148.026Z" stroke="#E3DCEE" stroke-opacity="0.35"/>
<path d="M726.965 40.1087L806.179 137.599L685.871 158.813L726.965 40.1087Z" fill="#E1DDEE" fill-opacity="0.07"/>
<path d="M686.621 158.173L727.143 41.1214L805.255 137.255L686.621 158.173Z" stroke="#E3DCEE" stroke-opacity="0.35"/>
<path d="M751.729 50.5775L830.943 148.068L710.635 169.282L751.729 50.5775Z" fill="#E1DDEE" fill-opacity="0.07"/>
<path d="M711.386 168.642L751.907 51.5901L830.019 147.723L711.386 168.642Z" stroke="#E3DCEE" stroke-opacity="0.35"/>
<path d="M776.449 60.7953L855.664 158.286L735.355 179.499L776.449 60.7953Z" fill="#E1DDEE" fill-opacity="0.07"/>
<path d="M736.106 178.859L776.627 61.8079L854.739 157.941L736.106 178.859Z" stroke="#E3DCEE" stroke-opacity="0.35"/>
<path d="M801.025 70.1966L880.24 167.687L759.931 188.901L801.025 70.1966Z" fill="#E1DDEE" fill-opacity="0.07"/>
<path d="M760.682 188.261L801.204 71.2093L879.315 167.342L760.682 188.261Z" stroke="#E3DCEE" stroke-opacity="0.35"/>
<path d="M825.364 78.2533L904.579 175.744L784.27 196.957L825.364 78.2533Z" fill="#E1DDEE" fill-opacity="0.07"/>
<path d="M785.021 196.317L825.543 79.2659L903.654 175.399L785.021 196.317Z" stroke="#E3DCEE" stroke-opacity="0.35"/>
<path d="M849.381 84.4857L928.596 181.976L808.287 203.19L849.381 84.4857Z" fill="#E1DDEE" fill-opacity="0.07"/>
<path d="M809.038 202.55L849.56 85.4983L927.671 181.631L809.038 202.55Z" stroke="#E3DCEE" stroke-opacity="0.35"/>
<path d="M873.006 88.4906L952.22 185.981L831.912 207.195L873.006 88.4906Z" fill="#E1DDEE" fill-opacity="0.07"/>
<path d="M832.662 206.555L873.184 89.5032L951.296 185.636L832.662 206.555Z" stroke="#E3DCEE" stroke-opacity="0.35"/>
<path d="M896.181 89.9505L975.396 187.441L855.088 208.655L896.181 89.9505Z" fill="#E1DDEE" fill-opacity="0.07"/>
<path d="M855.838 208.015L896.36 90.9632L974.472 187.096L855.838 208.015Z" stroke="#E3DCEE" stroke-opacity="0.35"/>
<path d="M918.871 88.6527L998.086 186.143L877.777 207.357L918.871 88.6527Z" fill="#E1DDEE" fill-opacity="0.07"/>
<path d="M878.528 206.717L919.049 89.6653L997.161 185.798L878.528 206.717Z" stroke="#E3DCEE" stroke-opacity="0.35"/>
<path d="M941.055 84.4906L1020.27 181.981L899.962 203.195L941.055 84.4906Z" fill="#E1DDEE" fill-opacity="0.07"/>
<path d="M900.712 202.555L941.234 85.5032L1019.35 181.636L900.712 202.555Z" stroke="#E3DCEE" stroke-opacity="0.35"/>
<path d="M962.737 77.4769L1041.95 174.967L921.643 196.181L962.737 77.4769Z" fill="#E1DDEE" fill-opacity="0.07"/>
<path d="M922.394 195.541L962.916 78.4895L1041.03 174.623L922.394 195.541Z" stroke="#E3DCEE" stroke-opacity="0.35"/>
<path d="M983.937 67.7318L1063.15 165.222L942.843 186.436L983.937 67.7318Z" fill="#E1DDEE" fill-opacity="0.07"/>
<path d="M943.594 185.796L984.115 68.7444L1062.23 164.878L943.594 185.796Z" stroke="#E3DCEE" stroke-opacity="0.35"/>
<path d="M1004.7 55.4896L1083.91 152.98L963.603 174.194L1004.7 55.4896Z" fill="#E1DDEE" fill-opacity="0.07"/>
<path d="M964.353 173.554L1004.88 56.5022L1082.99 152.635L964.353 173.554Z" stroke="#E3DCEE" stroke-opacity="0.35"/>
<path d="M1025.07 41.0814L1104.29 138.572L983.981 159.786L1025.07 41.0814Z" fill="#E1DDEE" fill-opacity="0.07"/>
<path d="M984.731 159.145L1025.25 42.094L1103.36 138.227L984.731 159.145Z" stroke="#E3DCEE" stroke-opacity="0.35"/>
<path d="M1045.14 24.9252L1124.36 122.416L1004.05 143.629L1045.14 24.9252Z" fill="#E1DDEE" fill-opacity="0.07"/>
<path d="M1004.8 142.989L1045.32 25.9378L1123.43 122.071L1004.8 142.989Z" stroke="#E3DCEE" stroke-opacity="0.35"/>
<path d="M1064.99 7.50914L1144.21 105L1023.9 126.213L1064.99 7.50914Z" fill="#E1DDEE" fill-opacity="0.07"/>
<path d="M1024.65 125.573L1065.17 8.52177L1143.28 104.655L1024.65 125.573Z" stroke="#E3DCEE" stroke-opacity="0.35"/>
<path d="M1084.71 -10.6286L1163.93 86.8619L1043.62 108.076L1084.71 -10.6286Z" fill="#E1DDEE" fill-opacity="0.07"/>
<path d="M1044.37 107.435L1084.89 -9.61593L1163 86.5172L1044.37 107.435Z" stroke="#E3DCEE" stroke-opacity="0.35"/>
<path d="M1104.4 -28.9215L1183.62 68.569L1063.31 89.7826L1104.4 -28.9215Z" fill="#E1DDEE" fill-opacity="0.07"/>
<path d="M1064.06 89.1425L1104.58 -27.9089L1182.69 68.2242L1064.06 89.1425Z" stroke="#E3DCEE" stroke-opacity="0.35"/>
<path d="M1124.17 -46.7965L1203.39 50.694L1083.08 71.9076L1124.17 -46.7965Z" fill="#E1DDEE" fill-opacity="0.07"/>
<path d="M1083.83 71.2675L1124.35 -45.7839L1202.46 50.3492L1083.83 71.2675Z" stroke="#E3DCEE" stroke-opacity="0.35"/>
<path d="M1144.11 -63.6969L1223.32 33.7936L1103.02 55.0072L1144.11 -63.6969Z" fill="#E1DDEE" fill-opacity="0.07"/>
<path d="M1103.77 54.3671L1144.29 -62.6843L1222.4 33.4488L1103.77 54.3671Z" stroke="#E3DCEE" stroke-opacity="0.35"/>
<path d="M1164.31 -79.1061L1243.52 18.3844L1123.22 39.598L1164.31 -79.1061Z" fill="#E1DDEE" fill-opacity="0.07"/>
<path d="M1123.97 38.9579L1164.49 -78.0935L1242.6 18.0397L1123.97 38.9579Z" stroke="#E3DCEE" stroke-opacity="0.35"/>
<path d="M1184.86 -92.5651L1264.07 4.92541L1143.76 26.139L1184.86 -92.5651Z" fill="#E1DDEE" fill-opacity="0.07"/>
<path d="M1144.51 25.499L1185.03 -91.5525L1263.15 4.58068L1144.51 25.499Z" stroke="#E3DCEE" stroke-opacity="0.35"/>
<path d="M1205.81 -103.694L1285.03 -6.2035L1164.72 15.0101L1205.81 -103.694Z" fill="#E1DDEE" fill-opacity="0.07"/>
<path d="M1165.47 14.3701L1205.99 -102.681L1284.1 -6.54822L1165.47 14.3701Z" stroke="#E3DCEE" stroke-opacity="0.35"/>
</g>
<defs>
<linearGradient id="paint0_linear_496_2" x1="10" y1="13.5" x2="1138.5" y2="140" gradientUnits="userSpaceOnUse">
<stop stop-color="#1F1539"/>
<stop offset="1" stop-color="#393939"/>
</linearGradient>
<clipPath id="clip0_496_2">
<rect width="1147" height="150" fill="white"/>
</clipPath>
</defs>
</svg>
